<?xml version="1.0" encoding="UTF-8" standalone="no"?><!DOCTYPE svg PUBLIC "-//W3C//DTD SVG 1.1//EN" "http://www.w3.org/Graphics/SVG/1.1/DTD/svg11.dtd"><svg width="100%" height="100%" viewBox="0 0 1161 1024" version="1.1" xmlns="http://www.w3.org/2000/svg" xmlns:xlink="http://www.w3.org/1999/xlink" xml:space="preserve" xmlns:serif="http://www.serif.com/" style="fill-rule:evenodd;clip-rule:evenodd;stroke-linejoin:round;stroke-miterlimit:2;"><rect id="Artboard4---Gray" serif:id="Artboard4 - Gray" x="0" y="0" width="1160.427" height="1024" style="fill:none;"/><path d="M273.394,775.282c-28.922,-26.071 -58.366,-29.061 -93.218,-65.276c-28.944,-30.076 -69.778,-87.084 -23.171,-143.366c39.443,-47.63 98.033,-40.19 124.048,-11.396c47.29,52.341 54.81,62.583 82.769,70.468c29.163,8.224 65.068,12.086 100.578,-17.4c19.095,-15.856 47.459,-66.068 19.832,-120.062c-28.645,-55.984 -85.97,-64.262 -125.23,-40.301c-24.039,14.672 -21.792,35.876 -68.848,60.39c-54.463,28.373 -100.609,5.156 -125.681,-32.411c0,0 -10.934,-17.56 -12.519,-23.29c-14.516,-52.488 2.804,-75.778 28.788,-108.445c26.916,-33.838 64.432,-69.226 135.355,-87.298c57.084,-14.545 192.452,-16.544 258.67,55.881c26.047,28.489 -53.021,-133.592 -58.25,-171.968c-6.535,-47.963 5.228,-86.307 56.25,-104.466c1.115,-0.397 2.26,-0.694 3.383,-1.06c47.197,-15.374 89.527,18.873 102.91,57.41c0,0 8.066,12.8 9.781,9.972c9.639,-15.9 29.023,-30.19 51.111,-34.635c66.5,-13.385 92.214,20.871 101.157,58.574c9.01,37.985 18.98,110.194 17.445,141.391c-3.239,65.811 -16.718,145.261 -10.481,132.367c17.263,-35.69 22.553,-78.299 35.488,-100.414c0.117,-0.199 32.052,-61.982 93.868,-42.407c36.883,11.68 64.308,45.808 47.433,104.334c-9.031,31.321 -29.6,69.6 -43.266,103.417c-15.579,38.552 -44.711,101.257 -55.564,127.893c-0.155,0.38 2.848,61.107 -12.116,123.247c-15.782,65.539 -41.858,129.579 -68.823,151.98c-41.841,34.758 -82.893,31.631 -140.13,52.448c-55.677,20.25 -90.844,64.908 -132.42,69.32c-43.373,4.602 -76.728,-9.793 -127.818,-41.706c-58.432,-36.499 -127.241,-133.448 -171.333,-173.192Z" style="fill:#676767;"/><clipPath id="_clip1"><path d="M273.394,775.282c-28.922,-26.071 -58.366,-29.061 -93.218,-65.276c-28.944,-30.076 -69.778,-87.084 -23.171,-143.366c39.443,-47.63 98.033,-40.19 124.048,-11.396c47.29,52.341 54.81,62.583 82.769,70.468c29.163,8.224 65.068,12.086 100.578,-17.4c19.095,-15.856 47.459,-66.068 19.832,-120.062c-28.645,-55.984 -85.97,-64.262 -125.23,-40.301c-24.039,14.672 -21.792,35.876 -68.848,60.39c-54.463,28.373 -100.609,5.156 -125.681,-32.411c0,0 -10.934,-17.56 -12.519,-23.29c-14.516,-52.488 2.804,-75.778 28.788,-108.445c26.916,-33.838 64.432,-69.226 135.355,-87.298c57.084,-14.545 192.452,-16.544 258.67,55.881c26.047,28.489 -53.021,-133.592 -58.25,-171.968c-6.535,-47.963 5.228,-86.307 56.25,-104.466c1.115,-0.397 2.26,-0.694 3.383,-1.06c47.197,-15.374 89.527,18.873 102.91,57.41c0,0 8.066,12.8 9.781,9.972c9.639,-15.9 29.023,-30.19 51.111,-34.635c66.5,-13.385 92.214,20.871 101.157,58.574c9.01,37.985 18.98,110.194 17.445,141.391c-3.239,65.811 -16.718,145.261 -10.481,132.367c17.263,-35.69 22.553,-78.299 35.488,-100.414c0.117,-0.199 32.052,-61.982 93.868,-42.407c36.883,11.68 64.308,45.808 47.433,104.334c-9.031,31.321 -29.6,69.6 -43.266,103.417c-15.579,38.552 -44.711,101.257 -55.564,127.893c-0.155,0.38 2.848,61.107 -12.116,123.247c-15.782,65.539 -41.858,129.579 -68.823,151.98c-41.841,34.758 -82.893,31.631 -140.13,52.448c-55.677,20.25 -90.844,64.908 -132.42,69.32c-43.373,4.602 -76.728,-9.793 -127.818,-41.706c-58.432,-36.499 -127.241,-133.448 -171.333,-173.192Z"/></clipPath><g clip-path="url(#_clip1)"><path d="M812.961,463.406c4.965,-16.075 15.972,-55.941 28.675,-128.784c1.422,-8.156 9.198,-13.622 17.354,-12.2c8.156,1.422 13.622,9.198 12.2,17.354c-1.348,7.728 -2.671,15.084 -3.968,22.081c4.875,3.455 7.409,9.657 5.905,15.81c-1.257,5.138 -4.851,17.35 -30.612,92.06c-2.743,8.938 -4.499,13.405 -5.015,14.551l-3.226,4.741l-3.523,2.612l-3.605,1.368l-4.783,0.351l-5.641,-1.649l-3.622,-2.649l-2.925,-4.091l-1.507,-6.298l0.894,-5.418c1.173,-3.394 2.306,-6.672 3.399,-9.838Z" style="fill:#fff;"/><path d="M738.457,445.576c-0.533,8.262 -7.673,14.536 -15.935,14.003c-8.262,-0.533 -14.536,-7.673 -14.003,-15.935c1.963,-30.427 7.641,-49.663 2.03,-123.012c-3.342,-43.689 -6.79,-51.542 -23.126,-140.748c-1.491,-8.143 3.909,-15.965 12.053,-17.457c8.143,-1.491 15.965,3.909 17.457,12.053c16.696,91.17 20.114,99.214 23.53,143.864c5.803,75.864 0.026,95.761 -2.004,127.232Z" style="fill:#fff;"/></g><path d="M192.63,522.983c-16.302,-9.319 -30.084,-22.921 -40.633,-38.728c-0.088,-0.131 -0.173,-0.264 -0.257,-0.398c0,0 -12.401,-20.562 -14.243,-27.221c-16.274,-58.845 2.375,-85.157 31.506,-121.781c28.515,-35.848 68.253,-73.35 143.391,-92.496c35.815,-9.126 101.101,-13.637 162.555,0.66c26.636,6.197 52.509,15.929 75.137,30.118c-17.901,-44.544 -45.399,-108.053 -48.43,-130.304c-4.496,-32.995 -0.676,-61.886 15.125,-84.324c10.747,-15.262 27.085,-27.802 50.958,-36.298c1.242,-0.442 2.515,-0.783 3.767,-1.19c51.727,-16.849 98.914,16.13 117.933,57.359c12.378,-11.852 29.154,-21.351 47.555,-25.055c38.757,-7.801 65.494,-0.797 83.98,12.729c18.77,13.734 29.44,34.776 34.732,57.088c9.277,39.109 19.412,113.47 17.832,145.591c-0.337,6.849 -0.786,13.845 -1.312,20.87c7.953,-13.04 45.255,-66.779 109.733,-46.361c22.152,7.015 41.303,20.976 52.543,41.766c10.877,20.118 14.583,47.009 4.775,81.024c-9.155,31.753 -29.917,70.598 -43.772,104.882c-15.058,37.262 -42.773,97.083 -54.42,125.114c0.276,13.632 0.828,68.224 -12.584,123.917c-16.669,69.222 -45.34,136.347 -73.821,160.006c-22.78,18.924 -45.276,27.674 -69.937,34.387c-22.289,6.068 -46.485,10.375 -74.651,20.62c-32.257,11.732 -57.272,32.141 -80.884,47.357c-18.446,11.887 -36.263,20.785 -55.08,22.782c-46.516,4.936 -82.555,-9.674 -137.348,-43.9c-59.055,-36.888 -128.867,-134.604 -173.429,-174.773c-13.539,-12.204 -27.282,-18.879 -41.637,-26.868c-16.449,-9.154 -33.652,-19.723 -52.346,-39.148c-32.9,-34.187 -76.894,-99.359 -23.916,-163.334c14.193,-17.14 30.497,-28.098 47.179,-34.09Zm82.237,7.961c6.582,4.037 12.435,8.843 17.315,14.244c43.72,48.389 49.862,58.797 75.71,66.087c25.178,7.1 56.266,10.954 86.925,-14.504c16.155,-13.414 39.433,-56.01 16.061,-101.689c-23.86,-46.632 -71.361,-54.288 -104.062,-34.329c-10.385,6.338 -14.794,14.373 -21.987,23.186c-9.244,11.325 -21.621,24.094 -47.746,37.704c-7.553,3.935 -14.967,7.01 -22.218,9.301Zm-97.918,-63.342c21.202,31.768 60.218,51.428 106.275,27.435c25.339,-13.201 34.746,-25.335 42.88,-35.772c7.146,-9.17 13.711,-17.177 25.084,-24.119c45.82,-27.965 112.967,-19.067 146.398,46.272c31.882,62.31 -1.567,120.136 -23.603,138.434c-40.363,33.516 -81.084,29.645 -114.232,20.297c-30.074,-8.481 -38.961,-18.549 -89.828,-74.848c-21.292,-23.566 -69.085,-28.074 -101.365,10.907c-40.25,48.606 -2.57,97.423 22.427,123.397c19.594,20.36 37.45,29.392 54.385,38.733c13.021,7.182 25.566,14.533 38.068,25.802c43.622,39.321 111.428,135.502 169.237,171.612c47.39,29.602 78.057,43.781 118.289,39.512c18.545,-1.968 35.381,-13.497 54.069,-26.208c21.894,-14.891 45.711,-31.71 74.806,-42.293c29.071,-10.573 54.02,-15.11 77.026,-21.373c20.635,-5.617 39.585,-12.682 58.646,-28.517c9.567,-7.948 18.728,-22.003 27.509,-39.491c14.403,-28.685 27.131,-66.321 36.316,-104.462c13.04,-54.151 11.961,-107.198 11.73,-117.534c-0.113,-5.044 1.012,-7.7 1.078,-7.861c10.85,-26.628 39.974,-89.313 55.548,-127.853c13.477,-33.351 33.854,-71.064 42.761,-101.953c7.068,-24.513 5.499,-43.946 -2.339,-58.445c-7.475,-13.826 -20.478,-22.768 -35.209,-27.433c-50.6,-16.023 -76.296,35.517 -76.392,35.68c-12.794,21.873 -17.859,64.073 -34.933,99.372c-2.023,4.183 -4.435,6.14 -5.772,7.076l-3.41,1.8l-3.36,0.847l-4.356,-0.045l-4.247,-1.317l-3.765,-2.56l-2.91,-3.657l-2.066,-6.204c-0.281,-2.016 -0.311,-6.242 0.172,-12.236c1.761,-21.884 9.387,-76.133 11.71,-123.339c1.49,-30.274 -8.315,-100.331 -17.058,-137.192c-3.651,-15.392 -10.309,-30.327 -23.257,-39.801c-13.235,-9.684 -32.597,-13.115 -60.345,-7.53c-17.775,3.578 -33.487,14.911 -41.244,27.706l-2.254,2.905l-3.373,2.617l-4.063,1.641l-3.897,0.468c-2.964,-0.014 -7.524,-1.037 -11.845,-4.891c-4.044,-3.609 -9.867,-12.492 -9.867,-12.492c-0.609,-0.966 -1.105,-1.998 -1.479,-3.076c-11,-31.677 -45.299,-60.706 -84.094,-48.068c-0.995,0.324 -2.012,0.578 -3,0.929c-16.945,6.03 -28.861,14.476 -36.488,25.308c-11.763,16.704 -13.275,38.437 -9.928,63.001c4.145,30.421 55.373,139.197 62.381,167.075c1.611,6.409 1.263,11.035 0.644,13.354l-1.804,4.266l-2.655,3.31c-3.133,2.98 -14.272,9.209 -26.249,-3.89c-24.477,-26.772 -59.34,-42.236 -95.546,-50.659c-56.084,-13.047 -115.664,-9.137 -148.35,-0.809c-66.709,16.998 -102.003,50.273 -127.32,82.1c-22.839,28.712 -38.828,48.975 -26.07,95.109c1.198,4.332 9.015,16.596 10.538,18.962Z" style="fill:#fff;"/><g id="Layer6"></g></svg>