<?xml version="1.0" encoding="UTF-8" standalone="no"?><!DOCTYPE svg PUBLIC "-//W3C//DTD SVG 1.1//EN" "http://www.w3.org/Graphics/SVG/1.1/DTD/svg11.dtd"><svg width="100%" height="100%" viewBox="0 0 1161 1024" version="1.1" xmlns="http://www.w3.org/2000/svg" xmlns:xlink="http://www.w3.org/1999/xlink" xml:space="preserve" xmlns:serif="http://www.serif.com/" style="fill-rule:evenodd;clip-rule:evenodd;stroke-linejoin:round;stroke-miterlimit:2;"><rect id="Artboard3---Gray" serif:id="Artboard3 - Gray" x="0" y="0" width="1160.427" height="1024" style="fill:none;"/><g><path d="M248.007,432.557c1.755,13.347 -5.913,51.73 1.841,48.997c4.993,-1.76 0.348,-36.49 -1.841,-48.997c-4.752,-27.142 -6.115,-72.809 -3.581,-97.068c2.819,-26.991 36.009,-65.24 63.108,-72.162c66.847,-17.077 85.435,39.026 100.182,33.458c17.22,-6.501 0.677,-55.801 78.642,-67.644c89.748,-13.632 94.947,44.719 101.033,46.862c12.754,4.491 28.186,-44.865 86.697,-42.018c46.252,2.25 76.708,27.14 94.111,51.134c23.765,32.765 33.839,165.51 45.97,137.154c69.976,-163.572 159.452,-199.044 170.573,-203.521c84.868,-34.162 121.167,21.446 134.623,50.333c18.361,39.419 5.83,85.844 -59.157,144.163c-66.391,59.579 -74.911,117.461 -74.911,117.461c0,0 -0.004,0.016 -0.007,0.023c-51.594,184.948 -91.305,237.967 -192.72,261.002c-61.489,13.966 -165.105,-8.138 -220.218,-3.983c-69.62,5.249 -158.861,54.495 -207.835,58.24c-66.162,5.059 -102.975,-12.106 -156.339,-80.189c-42.013,-53.6 -92.377,-208.932 -121.362,-294.355c-24.154,-71.186 -59.542,-173.165 -52.548,-218.182c9.258,-59.583 42.634,-68.114 73.868,-74.435c31.234,-6.321 65.572,4.803 87.429,46.15c22.015,41.645 47.539,124.071 47.786,143.782" style="fill:#676767;"/><path d="M241.813,300.89c3.896,-6.499 8.552,-12.899 13.758,-18.867c14.194,-16.274 32.274,-29.148 48.251,-33.229c47.16,-12.047 73.901,6.842 91.486,22.498c2.368,2.108 5.091,4.499 7.43,6.543c1.137,-3.041 2.501,-6.669 3.646,-9.644c7.656,-19.902 22.105,-45.432 77.722,-53.879c36.798,-5.589 61.046,0.068 77.424,8.917c15.053,8.133 25.327,21.927 31.174,31.751c1.099,-1.086 2.198,-2.18 3.193,-3.188c14.957,-15.137 37.951,-34.781 78.92,-32.788c51.856,2.523 86.013,30.409 105.525,57.309c8.387,11.564 15.713,34.245 21.577,58.957c4.305,18.142 7.914,37.449 11.226,53.018c70.762,-146.573 155.064,-179.048 165.997,-183.449c38.555,-15.52 68.323,-14.109 91.097,-5.47c34.436,13.063 53.482,43.541 62.725,63.385c20.432,43.866 9.582,96.763 -62.735,161.66c-61.549,55.234 -70.09,108.481 -70.09,108.481l12.689,-86.201l-27.529,99.017c0,0 12.819,-5.128 14.442,-10.946c-54.002,193.581 -97.697,247.489 -203.846,271.599c-31.983,7.264 -74.917,5.404 -117.027,2.012c-39.605,-3.191 -78.424,-7.698 -105.386,-5.665c-40.555,3.058 -87.898,21.742 -129.61,36.786c-30.139,10.871 -57.596,19.877 -78.21,21.453c-71.481,5.466 -111.634,-12.335 -169.289,-85.891c-42.674,-54.444 -94.32,-212.021 -123.761,-298.789c-14.627,-43.107 -33.31,-97.409 -44.412,-143.762c-7.89,-32.943 -11.764,-62.169 -8.753,-81.543c4.295,-27.641 13.475,-45.635 24.772,-57.955c16.934,-18.468 39.223,-24.483 60.943,-28.879c36.906,-7.468 77.839,4.986 103.665,53.841c11.39,21.545 23.56,53.561 32.986,82.919Zm728.815,226.582c1.481,-8.444 13.734,-66.312 79.562,-125.386c57.686,-51.767 71.876,-91.675 55.578,-126.665c-6.904,-14.821 -20.451,-38.246 -46.171,-48.002c-17.331,-6.574 -39.912,-6.561 -69.254,5.25c-10.644,4.285 -95.412,38.956 -162.383,195.506c-5.227,12.219 -13.841,13.492 -18.959,12.952c-4.363,-0.461 -11.202,-3.331 -15.588,-12.751c-5.932,-12.742 -12.427,-51.385 -20.684,-86.179c-4.77,-20.101 -9.85,-38.863 -16.672,-48.269c-15.294,-21.086 -42.05,-42.981 -82.698,-44.959c-27.142,-1.32 -43.026,11.089 -53.663,21.463c-5.852,5.707 -10.492,10.933 -14.432,14.201c-8.256,6.847 -16.036,7.922 -22.855,5.521c-2.83,-0.997 -6.852,-3.405 -9.997,-9.032c-3.027,-5.417 -7.266,-21.839 -25.143,-31.498c-12.384,-6.691 -30.835,-9.877 -58.658,-5.651c-22.759,3.457 -36.109,10.159 -44.143,18.4c-7.751,7.95 -10.313,16.985 -12.708,24.013c-4.332,12.709 -9.977,21.123 -18.745,24.434c-5.4,2.039 -11.001,1.903 -16.972,-0.766c-4.061,-1.816 -8.73,-5.404 -13.972,-10.21c-12.358,-11.33 -31.578,-32.008 -70.824,-21.983c-11.124,2.842 -23.185,12.551 -33.067,23.882c-9.821,11.26 -17.685,24.295 -18.835,35.306c-0.798,7.641 -1.191,17.5 -1.198,28.216c0.123,1.24 0.191,2.347 0.203,3.311c0.011,0.838 -0.048,1.661 -0.17,2.463c0.243,20.433 1.814,42.998 4.6,58.915c0.001,0.006 0.002,0.012 0.003,0.018c1.928,11.009 5.309,37.692 3.882,48.907c-1.344,10.558 -7.693,15.366 -11.83,16.824l-6.872,0.952l-4.018,-0.783l-3.655,-1.716c-3.118,-1.96 -6.573,-5.624 -8.05,-11.961c-1.042,-4.471 -1.066,-12.543 -0.433,-21.487c0.665,-9.39 2.042,-20.118 1.362,-25.931c-3.207,-18.538 -4.91,-45.192 -4.969,-68.462c-2.132,-22.595 -25.77,-96.254 -45.895,-134.323c-17.89,-33.842 -45.628,-43.631 -71.193,-38.458c-15.764,3.19 -32.492,6.347 -44.782,19.75c-8.185,8.926 -14.127,22.259 -17.239,42.286c-2.586,16.64 1.507,41.655 8.284,69.949c10.898,45.502 29.288,98.794 43.646,141.11c28.529,84.078 77.612,237.165 118.963,289.921c49.075,62.61 82.546,79.138 143.39,74.486c23.502,-1.797 56.576,-14.81 92.216,-27.705c38.44,-13.908 79.602,-27.82 115.636,-30.536c28.151,-2.122 68.696,2.346 110.05,5.677c38.849,3.13 78.467,5.339 107.973,-1.363c96.547,-21.93 132.302,-73.926 181.38,-249.637Z" style="fill:#fff;"/><path d="M427.811,396.604c-4.596,-6.886 -2.736,-16.208 4.15,-20.803c6.886,-4.596 16.208,-2.736 20.803,4.15c74.396,111.476 56.934,175.792 55.806,227.75c-1.129,51.979 -28.543,88.871 -75.444,94.756c-23.266,2.919 -52.152,-0.4 -76.241,-21.422c-22.395,-19.543 -41.392,-55.414 -44.861,-119.696c-0.446,-8.267 5.903,-15.34 14.17,-15.786c8.267,-0.446 15.34,5.903 15.786,14.17c2.839,52.606 16.303,82.716 34.63,98.709c16.631,14.513 36.719,16.274 52.781,14.258c31.762,-3.986 48.422,-30.44 49.187,-65.641c1.042,-47.968 17.917,-107.53 -50.766,-210.446Z" style="fill:#fff;"/><path d="M595.746,409.451c-4.107,-7.188 -1.605,-16.359 5.584,-20.465c7.188,-4.107 16.359,-1.605 20.465,5.584c58.747,102.833 42.201,171.636 28.405,219.423c-12.881,44.616 -39.141,82.8 -84.556,88.499c-46.612,5.849 -76.705,-13.592 -91.422,-33.851c-4.866,-6.698 -3.378,-16.086 3.32,-20.952c6.698,-4.866 16.086,-3.378 20.952,3.32c10.119,13.93 31.366,25.738 63.416,21.717c33.254,-4.173 50.036,-34.384 59.468,-67.054c12.339,-42.74 26.912,-104.247 -25.631,-196.221Z" style="fill:#fff;"/><path d="M769.334,507.655c-1.528,-8.137 3.838,-15.983 11.974,-17.51c8.137,-1.528 15.983,3.838 17.51,11.974c3.426,18.247 9.553,42.246 3.227,72.956c-8.184,39.731 -23.632,59.291 -39.855,69.838c-16.133,10.488 -33.826,12.026 -48.791,13.576c-30.179,3.127 -67.658,-11.662 -84.22,-40.188c-4.157,-7.159 -1.719,-16.347 5.44,-20.504c7.159,-4.157 16.347,-1.719 20.504,5.44c10.783,18.571 35.536,27.447 55.183,25.411c10.823,-1.122 23.864,-1.303 35.531,-8.888c11.579,-7.528 20.982,-22.381 26.824,-50.738c5.324,-25.845 -0.446,-46.012 -3.329,-61.368Z" style="fill:#fff;"/><path d="M788.601,696.53c1.382,8.163 -4.124,15.911 -12.286,17.293c-8.163,1.382 -15.911,-4.124 -17.293,-12.286c-9.577,-56.579 3.269,-102.487 3.269,-102.487c2.209,-7.979 10.48,-12.663 18.459,-10.454c7.979,2.209 12.663,10.48 10.454,18.459c0,0 -10.962,40.084 -2.602,89.475Z" style="fill:#fff;"/></g><g id="Layer6"></g></svg>