<?xml version="1.0" encoding="UTF-8" standalone="no"?>
<!DOCTYPE svg PUBLIC "-//W3C//DTD SVG 1.1//EN" "http://www.w3.org/Graphics/SVG/1.1/DTD/svg11.dtd">
<svg width="100%" height="100%" viewBox="0 0 1024 1024" version="1.1" xmlns="http://www.w3.org/2000/svg" xmlns:xlink="http://www.w3.org/1999/xlink" xml:space="preserve" xmlns:serif="http://www.serif.com/" style="fill-rule:evenodd;clip-rule:evenodd;stroke-linejoin:round;stroke-miterlimit:2;">
    <g transform="matrix(1,0,0,1,-10.601143,-1138.622718)">
        <g id="V2" transform="matrix(1,0,0,1,10.601143,1138.622718)">
            <rect x="0" y="0" width="1024" height="1024" style="fill:none;"/>
            <g id="Layer3" transform="matrix(1,0,0,1,-1102.127545,0)">
                <g transform="matrix(0.711968,0.237385,-0.237385,0.711968,605.400512,-204.574271)">
                    <path d="M1747.91,521.513C1751.734,525.424 1749.694,490.405 1753.533,494.751C1817.562,567.24 1881.86,694.828 1881.86,694.828L1901.41,723.782L1934.159,761.122C1893.435,906.142 1705.24,933.336 1637.603,930.398C1507.729,924.757 1433.222,853.369 1422.804,844.971C1352.85,788.584 1348.115,795.784 1272.721,746.861C1156.459,671.42 1190.311,568.978 1260.463,559.523C1308.743,553.016 1361.375,597.995 1361.375,597.995C1361.375,597.995 1428.531,656.326 1454.737,680.941C1475.321,700.275 1493.458,709.815 1500.037,705.854C1507.531,701.343 1466.473,626.159 1441.426,579.344C1409.253,519.209 1395.827,490.303 1358.097,335.411C1331.037,224.322 1327.216,170.639 1342.502,129.94C1376.789,38.648 1469.443,46.213 1497.373,107.193C1516.11,148.103 1540.702,324.914 1563.762,388.528C1564.102,389.466 1594.572,468.457 1596.656,475.918C1581.744,426.928 1579.414,308.496 1581.575,269.13C1584.553,214.876 1588.146,110.999 1647.565,60.304C1676.123,35.939 1794.792,30.485 1783.03,178.506C1777.06,253.653 1738.455,305.854 1741.548,465.143C1741.657,470.743 1747.695,515.643 1747.91,521.513Z" style="fill:rgb(44,86,195);"/>
                    <path d="M1449.909,644.946C1440.113,626.112 1429.517,606.514 1420.866,590.344C1387.961,528.841 1374.03,499.346 1335.442,340.93C1306.593,222.496 1304.377,165.131 1320.673,121.742C1337.51,76.911 1366.626,52.275 1396.722,42.71C1444.561,27.506 1496.771,49.882 1518.573,97.483C1530.096,122.641 1543.926,198.833 1558.236,268.911C1558.255,268.552 1558.273,268.199 1558.292,267.852C1560.156,233.887 1562.466,181.313 1577.236,133.238C1587.992,98.226 1605.339,65.679 1632.43,42.566C1643.247,33.337 1663.308,25.175 1686.69,23.953C1719.618,22.233 1758.703,33.609 1783.587,69.908C1799.816,93.582 1810.367,128.855 1806.275,180.353C1800.351,254.907 1761.793,306.658 1764.861,464.69C1764.888,466.084 1765.287,469.926 1765.873,474.995L1771.01,479.314C1832.721,549.18 1894.787,668.904 1901.984,682.963L1919.911,709.514L1951.69,745.747C1956.89,751.677 1958.741,759.833 1956.608,767.427C1938.501,831.908 1894.538,875.744 1843.042,904.552C1769.114,945.909 1679.765,955.569 1636.591,953.694C1498.539,947.697 1419.245,872.052 1408.17,863.125C1339.15,807.491 1334.416,814.691 1260.028,766.422C1206.487,731.679 1181.67,691.135 1175.047,655.286C1163.79,594.352 1202.435,543.815 1257.348,536.414C1280.979,533.229 1305.562,539.58 1326.434,549.001C1355.23,561.998 1376.524,580.269 1376.524,580.269L1376.665,580.391C1376.665,580.391 1419.141,617.29 1449.909,644.946ZM1761.224,541.357L1760.917,541.618L1754.033,544.476L1745.924,544.999L1737.866,542.646L1731.237,537.813C1727.183,533.668 1724.82,528.16 1724.608,522.366C1724.392,516.455 1718.344,471.235 1718.235,465.596C1715.117,305.049 1753.768,252.399 1759.786,176.659C1762.751,139.339 1756.883,113.433 1745.122,96.277C1730.82,75.415 1708.048,69.537 1689.123,70.525C1677.925,71.11 1667.88,73.623 1662.699,78.043C1642.255,95.486 1629.932,120.511 1621.815,146.934C1608.274,191.009 1606.567,239.268 1604.858,270.408C1602.782,308.233 1604.635,422.056 1618.963,469.128L1618.96,469.129C1619.022,469.327 1619.073,469.5 1619.114,469.646C1622.549,481.949 1615.448,494.725 1603.187,498.302C1590.925,501.88 1578.068,494.927 1574.348,482.708C1574.22,482.287 1574.093,481.861 1573.966,481.43C1570.528,470.67 1542.165,397.37 1541.84,396.474C1518.93,333.275 1494.788,157.546 1476.173,116.903C1464.459,91.327 1436.551,78.986 1410.847,87.155C1391.91,93.174 1374.925,109.929 1364.331,138.139C1350.055,176.15 1355.479,226.138 1380.753,329.893C1417.624,481.261 1430.545,509.577 1461.986,568.344C1482.662,606.989 1513.691,664.478 1521.405,688.267C1525.261,700.16 1524.101,708.963 1522.568,713.093L1517.84,721.017L1512.063,725.832C1505.865,729.563 1496.503,731.795 1484.544,728.209C1473.514,724.902 1456.659,714.738 1438.773,697.937C1413.338,674.046 1349.038,618.166 1346.133,615.644C1344.776,614.506 1328.655,601.17 1307.248,591.507C1294.003,585.529 1278.573,580.611 1263.577,582.632C1228.798,587.319 1208.737,625.253 1226.801,665.332C1236.273,686.348 1255.19,707.689 1285.413,727.301C1361.815,776.877 1366.549,769.676 1437.437,826.816C1447.2,834.685 1516.92,901.816 1638.615,907.102C1670.351,908.48 1730.351,902.681 1787.215,879.634C1838.129,858.998 1887.017,824.405 1907.936,766.587L1883.879,739.158C1883.233,738.421 1882.634,737.643 1882.085,736.831L1862.535,707.876C1861.982,707.057 1861.481,706.204 1861.036,705.322C1861.036,705.322 1814.249,612.233 1761.224,541.357Z" style="fill:white;"/>
                </g>
                <g transform="matrix(0.543998,0.18138,-0.194835,0.584351,892.390389,8.440018)">
                    <path d="M1895.216,427.557C1899.442,424.728 1941.973,397.136 1986.959,416.606C2037.681,438.559 2027.293,518.405 2030.738,579.554C2032.227,605.978 2030.552,690.474 1981.788,736.632C1971.075,746.773 1912.287,787.366 1850.193,726.587" style="fill:rgb(44,86,195);"/>
                    <path d="M1913.033,450.623C1899.358,459.777 1880.273,456.873 1870.439,444.143C1860.606,431.412 1863.725,413.645 1877.4,404.491C1883.032,400.72 1939.855,364.89 1999.825,390.844C2028.575,403.287 2045.195,427.725 2053.032,459.474C2061.684,494.53 2059.058,539.796 2061.214,578.066C2062.911,608.178 2059.118,703.951 2003.546,756.553C1994.783,764.848 1962.535,788.339 1919.769,787.706C1892.56,787.304 1860.394,777.795 1828.08,746.166C1816.472,734.804 1816.957,716.806 1829.162,706C1841.367,695.194 1860.699,695.646 1872.307,707.007C1889.675,724.008 1906.114,730.677 1920.739,730.893C1940.716,731.189 1955.937,720.585 1960.03,716.711C2001.993,676.99 2001.544,603.781 2000.263,581.042C1998.578,551.143 2000.389,516.669 1996.307,486.99C1993.616,467.424 1990.444,449.445 1974.094,442.369C1944.084,429.38 1915.852,448.736 1913.033,450.623Z" style="fill:white;"/>
                </g>
                <g transform="matrix(0.676956,0.225711,-0.224904,0.674535,649.926049,-138.721523)">
                    <path d="M1893.766,488.676C1893.766,488.676 1906.804,406.422 1845.859,392.878C1772.487,376.573 1761.013,420.779 1750.877,453.023C1733.734,507.554 1702.754,668.808 1752.88,712.318C1805.629,758.105 1894.516,745.39 1888.98,639.405C1883.697,538.255 1893.766,488.676 1893.766,488.676Z" style="fill:rgb(44,86,195);"/>
                    <path d="M1917.795,493.591C1917.795,493.591 1908.405,541.135 1913.47,638.116C1916.253,691.394 1898.05,725.173 1873.362,743.739C1835.393,772.29 1777.617,766.33 1736.837,730.933C1717.929,714.52 1706.492,685.486 1702.717,650.045C1695.352,580.896 1714.872,485.752 1727.49,445.618C1735.196,421.105 1745.388,392.291 1770.889,376.7C1788.231,366.097 1813.226,360.418 1851.161,368.848C1893.223,378.196 1910.714,410.388 1916.73,441.11C1921.965,467.842 1917.985,492.543 1917.985,492.543C1917.929,492.893 1917.866,493.243 1917.795,493.591ZM1869.593,484.486L1869.594,484.48C1869.925,482.081 1871.797,466.911 1868.603,450.602C1865.901,436.802 1859.452,421.107 1840.557,416.908C1819.773,412.289 1805.908,412.928 1796.407,418.737C1781.63,427.772 1778.73,446.224 1774.264,460.428C1764.447,491.658 1749.859,559.556 1750.107,617.85C1750.184,635.953 1751.668,653.076 1755.489,667.594C1758.365,678.525 1762.211,687.876 1768.923,693.703C1791.458,713.264 1822.969,720.124 1843.951,704.346C1858.565,693.357 1866.137,672.23 1864.49,640.693C1859.365,542.58 1868.341,491.075 1869.593,484.486Z" style="fill:rgb(254,254,254);"/>
                </g>
            </g>
        </g>
        <g id="Layer6">
        </g>
        <g id="Layer9">
        </g>
        <g id="Layer10">
        </g>
    </g>
</svg>
