<?xml version="1.0" encoding="UTF-8" standalone="no"?>
<!DOCTYPE svg PUBLIC "-//W3C//DTD SVG 1.1//EN" "http://www.w3.org/Graphics/SVG/1.1/DTD/svg11.dtd">
<svg width="100%" height="100%" viewBox="0 0 1024 1024" version="1.1" xmlns="http://www.w3.org/2000/svg" xmlns:xlink="http://www.w3.org/1999/xlink" xml:space="preserve" xmlns:serif="http://www.serif.com/" style="fill-rule:evenodd;clip-rule:evenodd;stroke-linejoin:round;stroke-miterlimit:2;">
    <rect id="Artboard1" x="0" y="0" width="1024" height="1024" style="fill:none;"/>
    <g id="Artboard11" serif:id="Artboard1">
        <g id="Layer2">
            <g>
                <g transform="matrix(1.390452,-0.332758,0.321414,1.343053,-304.952547,67.079546)">
                    <path d="M305.543,102.579L326.015,258.295L339.914,419.551L312.702,552.591L283.461,631.211L314.719,764.712L443.43,803.627L543.062,804.013L590.352,735.807L647.644,621.222L574.677,502.389L642.846,353.37L738.709,183.182L575.565,166.675L534.142,288.918L471.73,453.699L457.992,439.383L478.746,227.15L468.446,84.852L305.543,102.579Z" style="fill:rgb(254,254,254);"/>
                </g>
                <g transform="matrix(1.240285,-0.29682,0.29682,1.240285,-228.639712,96.770938)">
                    <path d="M319.014,95.758L332.948,222.111L354.604,446.298L323.364,576.326L301.722,652.488L326.623,766.727L457.058,806.986L543.062,804.013L590.352,735.807L647.644,621.222L560.341,502.999L669.338,280.47L725.655,189.554L613.677,176.126L574.184,280.524L512.461,418.311L493.996,470.56L468.096,488.668L437.788,452.881L457.562,202.572L453.91,85.593L319.014,95.758Z" style="fill:rgb(61,105,217);"/>
                </g>
                <g transform="matrix(1.398183,-0.334608,0.334608,1.398183,-358.382547,14.346849)">
                    <path d="M667.077,592.112L692.616,649.792L524.82,761.643L479.694,695.78L667.077,592.112Z" style="fill:rgb(254,254,254);"/>
                </g>
                <g transform="matrix(1.156534,-0.276777,0.276777,1.156534,-173.346239,135.17856)">
                    <path d="M661.973,602.535L680.744,638.535L595.27,701.114L511.607,752.833L485.546,704.884L661.973,602.535Z" style="fill:rgb(61,105,217);"/>
                </g>
                <g transform="matrix(1.240285,-0.29682,0.29682,1.240285,-228.639712,96.770938)">
                    <path d="M563.625,483.688L616.775,518.386L677.612,580.006L537.446,657.393L433.443,713.335L384.536,647.922L563.625,483.688Z" style="fill:rgb(254,254,254);"/>
                </g>
                <g transform="matrix(1.0986,-0.262913,0.262913,1.0986,-132.319941,163.270861)">
                    <path d="M567.251,507.862L618.997,534.396L642.798,578.421L432.15,700.531L398.675,656.948L567.251,507.862Z" style="fill:rgb(61,105,217);"/>
                </g>
                <g transform="matrix(1.240285,-0.29682,0.29682,1.240285,-228.639712,96.770938)">
                    <path d="M376.65,519.841L360.979,568.337L335.607,617.884L534.316,630.514L549.233,559.149L534.805,532.942L376.65,519.841Z" style="fill:rgb(254,254,254);"/>
                </g>
                <g transform="matrix(1.017703,-0.243553,0.197598,0.825678,-77.733021,311.668426)">
                    <path d="M338.181,529.227L323.546,604.601L333.601,602.679L531.796,631.944L545.098,573.57L537.047,543.621L346.216,536.331L338.181,529.227Z" style="fill:rgb(61,105,217);"/>
                </g>
            </g>
        </g>
    </g>
</svg>
