<?xml version="1.0" encoding="UTF-8" standalone="no"?><!DOCTYPE svg PUBLIC "-//W3C//DTD SVG 1.1//EN" "http://www.w3.org/Graphics/SVG/1.1/DTD/svg11.dtd"><svg width="100%" height="100%" viewBox="0 0 1161 1024" version="1.1" xmlns="http://www.w3.org/2000/svg" xmlns:xlink="http://www.w3.org/1999/xlink" xml:space="preserve" xmlns:serif="http://www.serif.com/" style="fill-rule:evenodd;clip-rule:evenodd;stroke-linejoin:round;stroke-miterlimit:2;"><rect id="Artboard2---Gray" serif:id="Artboard2 - Gray" x="0" y="0" width="1160.427" height="1024" style="fill:none;"/><g id="Layer11"><g><path d="M779.443,513.117c7.053,9.922 120.257,10.653 161.281,128.968c30.642,88.373 -6.294,210.438 -62.174,280.256c-68.576,85.682 -109.3,27.443 -287.906,24.568c-96.508,-1.553 -183.903,50.938 -256.398,-15.737c-86.385,-79.45 -143.003,-192.705 -88.305,-324.586c13.517,-32.59 67.308,-24.853 92.55,-42.364c16.678,-11.57 1.04,-52.008 24.03,-58.608c19.597,-5.626 41.66,-9.68 66.483,-12.56c-45.287,-53.551 -108.097,-255.643 -108.719,-326.49c-0.317,-36.158 22.903,-76.213 62.733,-88.868c101.061,-32.11 121.734,63.337 142.883,124.404c36.604,105.692 55.891,211.755 56.516,270.427c0.052,4.866 -0.092,9.562 -0.426,14.066c0.987,-0.001 1.976,-0.001 2.968,-0.001c12.585,-0 25.014,0.45 37.257,1.315c0.34,-1.308 0.726,-2.631 1.163,-3.969c0,0 21.456,-208.838 43.454,-274.5c32.895,-98.185 75.109,-142.891 155.945,-120.331c40.254,11.234 57.991,52.148 57.674,88.306c-0.625,71.162 -117.778,312.115 -101.009,335.703Z" style="fill:#676767;"/><path d="M597.41,471.734c4.066,0.093 8.115,0.232 12.146,0.415c4.697,-43.081 23.737,-209.818 43.055,-267.475c21.31,-63.605 47.398,-105.66 82.786,-124.477c24.872,-13.225 54.609,-15.809 91.414,-5.538c47.204,13.173 69.013,60.485 68.641,102.886c-0.445,50.662 -58.301,186.155 -87.522,270.992c-6.388,18.546 -11.334,34.528 -13.735,46.389c-0.524,2.589 -0.856,5.473 -1.059,7.752c4.988,1.41 13.122,3.718 20.667,5.9c41.267,11.934 110.139,39.323 141.092,128.592c32.188,92.832 -5.936,221.202 -64.635,294.543c-19.201,23.991 -36.705,37.602 -54.907,44.932c-18.412,7.414 -37.754,8.494 -61.024,6.11c-40.795,-4.18 -95.241,-19.421 -183.927,-20.849c-47.614,-0.766 -92.964,11.936 -135.368,16.469c-47.273,5.054 -91.069,0.509 -130.942,-36.163c-90.795,-83.506 -149.496,-202.76 -92.007,-341.373c7.152,-17.245 22.166,-26.797 40.54,-32.522c10.776,-3.358 22.73,-5.441 33.957,-8.005c8.832,-2.017 17.196,-4.14 23.358,-8.414c0.482,-0.335 0.541,-0.972 0.753,-1.549c0.56,-1.519 0.901,-3.209 1.181,-4.982c1.093,-6.916 1.192,-14.731 2.215,-21.763c2.292,-15.757 8.966,-28.008 24.292,-32.408c13.623,-3.911 28.394,-7.101 44.407,-9.678c-15.034,-25.052 -31.043,-61.265 -45.53,-100.979c-28.591,-78.381 -51.591,-170.331 -51.973,-213.844c-0.369,-42.081 26.836,-88.568 73.19,-103.296c35.084,-11.147 61.781,-8.332 82.647,2.03c20.76,10.31 36.021,28.503 47.662,50.145c13.863,25.771 22.592,56.501 31.29,81.616c37.111,107.156 56.568,214.719 57.334,274.543Zm169.808,50.074c-2.301,-3.237 -4.173,-8.079 -4.392,-14.704c-0.257,-7.755 1.884,-19.926 6.186,-35.195c12.917,-45.843 45.207,-124.094 69.108,-191.706c15.157,-42.876 27.142,-81.156 27.334,-102.921c0.263,-29.92 -13.396,-64.431 -46.706,-73.727c-27.865,-7.776 -50.435,-6.883 -69.266,3.13c-30.168,16.041 -50.258,53.295 -68.424,107.519c-21.737,64.882 -42.756,271.268 -42.756,271.268c-0.109,1.059 -0.33,2.104 -0.66,3.116c-0.34,1.042 -0.641,2.071 -0.905,3.089c-1.817,6.997 -8.365,11.702 -15.576,11.192c-11.896,-0.841 -23.972,-1.278 -36.2,-1.278l-2.956,0.001c-4.173,0.003 -8.159,-1.732 -11,-4.789c-2.841,-3.057 -4.28,-7.16 -3.97,-11.321c0.304,-4.097 0.433,-8.368 0.386,-12.795c-0.614,-57.649 -19.725,-161.828 -55.691,-265.678c-8.221,-23.739 -16.259,-52.864 -29.362,-77.222c-8.583,-15.956 -19.281,-29.887 -34.586,-37.487c-15.199,-7.548 -34.664,-8.428 -60.219,-0.308c-33.306,10.582 -52.541,44.205 -52.276,74.441c0.364,41.504 22.887,129.066 50.158,203.827c17.876,49.005 37.626,92.546 55.016,113.109c3.569,4.221 4.528,10.063 2.495,15.203c-2.033,5.14 -6.729,8.746 -12.22,9.383c-23.921,2.775 -45.188,6.656 -64.073,12.078c-2.393,0.687 -2.073,3.385 -2.528,5.762c-0.959,5.01 -1.18,10.618 -1.658,16.021c-1.303,14.747 -5.449,27.805 -15.434,34.732c-13.941,9.671 -35.562,13.018 -55.768,17.799c-13.333,3.155 -26.551,6.11 -31.477,17.986c-51.906,125.15 2.627,232.403 84.604,307.798c32.622,30.003 68.769,32.549 107.445,28.414c43.544,-4.655 90.146,-17.422 139.04,-16.635c89.92,1.447 145.139,16.763 186.502,21.001c17.81,1.825 32.668,1.579 46.761,-4.095c14.302,-5.759 27.604,-16.998 42.691,-35.849c53.061,-66.297 88.809,-182.053 59.713,-265.969c-30.402,-87.681 -104.028,-105.139 -135.435,-113.525c-7.156,-1.911 -12.602,-3.577 -15.835,-5.143c-4.066,-1.969 -6.567,-4.416 -8.064,-6.523Z" style="fill:#fff;"/><path d="M469.772,514.195c20.125,15.285 54.916,44.1 83.518,80.035c43.984,55.258 39.178,128.138 34.264,165.321c-4.572,34.598 -6.448,88.855 -63.644,80.179c-23.401,-3.55 -32.242,-7.739 -43.084,-28.952c-12.486,-24.43 7.215,-68.398 -19.336,-112.829c-1.634,-2.735 -3.443,-5.471 -5.446,-8.205c-24.37,-33.263 -85.461,-93.418 -85.461,-93.418c-34.432,-33.664 -61.462,-59.748 -35.89,-91.662c31.187,-38.921 83.524,-29.627 135.078,9.53Z" style="fill:#676767;"/><path d="M478.844,502.25c20.773,15.777 56.658,45.547 86.182,82.638c47.034,59.09 42.653,136.865 37.399,176.627c-1.931,14.617 -3.528,32.534 -8.47,48.213c-4.502,14.283 -11.761,26.768 -23.009,35.101c-11.371,8.424 -27.032,13.106 -49.285,9.731c-14.35,-2.177 -24.112,-4.958 -32.072,-10.038c-8.378,-5.347 -15.122,-13.227 -22.119,-26.917c-5.956,-11.654 -6.534,-26.935 -6.194,-44.589c0.382,-19.822 1.56,-43.574 -12.662,-67.372c-1.401,-2.345 -2.953,-4.69 -4.67,-7.034c-23.667,-32.304 -82.688,-90.416 -83.867,-91.577c-18.481,-18.07 -34.726,-34.322 -43.17,-50.124c-10.727,-20.073 -11.358,-39.861 6.08,-61.624c35.931,-44.841 96.46,-38.148 155.857,6.965Zm-18.145,23.89c-43.759,-33.236 -87.829,-45.132 -114.3,-12.096c-3.979,4.966 -6.269,9.587 -6.724,14.238c-0.725,7.406 2.963,14.33 8.236,21.7c8.075,11.288 20.093,22.843 33.159,35.618l0.038,0.037c0,0 62.202,61.345 87.036,95.241c2.288,3.124 4.355,6.251 6.222,9.375c14.896,24.927 17.117,49.653 17.066,71.644c-0.022,9.576 -0.489,18.54 -0.173,26.603c0.23,5.855 0.709,11.116 2.923,15.45c3.847,7.526 6.94,12.342 11.545,15.282c5.022,3.205 11.378,4.293 20.431,5.666c12.071,1.831 20.76,0.393 26.928,-4.176c6.289,-4.659 9.738,-12.028 12.255,-20.014c4.416,-14.01 5.615,-30.062 7.341,-43.124c4.573,-34.605 9.805,-102.587 -31.13,-154.014c-27.682,-34.777 -61.378,-62.638 -80.855,-77.431Z" style="fill:#fff;"/><path d="M240.348,625.62c31.889,-94.191 79.36,-84.582 130.914,-45.426c20.125,15.285 38.419,31.85 63.468,66.684c43.516,60.516 49.646,116.385 31.998,159.068c-7.577,18.324 -25.021,30.251 -49.054,33.969c-35.331,5.465 -63.618,-19.227 -89.519,-76.655" style="fill:#676767;"/><path d="M254.556,630.431c-2.655,7.842 -11.176,12.052 -19.018,9.398c-7.842,-2.655 -12.052,-11.176 -9.398,-19.018c18.478,-54.579 43.496,-77.426 69.337,-82.614c25.809,-5.182 55.022,7.393 84.857,30.054c21.098,16.024 40.314,33.354 66.574,69.871c47.416,65.939 52.911,127.049 33.682,173.557c-9.442,22.837 -30.672,38.428 -60.622,43.061c-40.671,6.291 -75.671,-19.204 -105.486,-85.311c-3.404,-7.547 -0.04,-16.437 7.507,-19.841c7.547,-3.404 16.437,-0.04 19.841,7.507c9.592,21.268 19.413,37.763 29.988,49.485c13.172,14.6 27.266,21.034 43.564,18.513c18.12,-2.803 31.772,-11.06 37.485,-24.877c16.068,-38.86 9.304,-89.483 -30.315,-144.579c-23.838,-33.15 -41.211,-48.949 -60.363,-63.496c-21.731,-16.505 -42.008,-28.306 -60.806,-24.531c-18.773,3.769 -33.404,23.172 -46.827,62.822Z" style="fill:#fff;"/><path d="M797.142,833.634c87.927,-80.253 34.629,-165.068 -64.94,-115.636c-58.404,28.995 -74.857,44.73 -145.693,42.962c-35.585,-0.888 -68.38,-23.951 -75.702,-57.105c-18.577,-84.12 55.352,-111.744 117.403,-117.132c23.749,-2.062 58.673,-8.788 115.979,0.203" style="fill:#676767;"/><path d="M807.254,844.713c-6.115,5.581 -15.61,5.148 -21.191,-0.967c-5.581,-6.115 -5.148,-15.61 0.967,-21.191c19.593,-17.883 31.573,-35.843 36.754,-52.301c4.327,-13.746 3.781,-26.123 -1.72,-35.449c-5.215,-8.84 -14.81,-14.409 -27.247,-16c-15.308,-1.958 -34.325,1.895 -55.945,12.628c-61.171,30.369 -78.544,46.374 -152.737,44.522c-42.52,-1.061 -81.226,-29.25 -89.975,-68.865c-6.495,-29.412 -2.868,-52.859 6.759,-71.497c21.487,-41.602 75.567,-59.608 123.994,-63.813c24.491,-2.126 60.505,-8.944 119.602,0.328c8.179,1.283 13.777,8.965 12.494,17.144c-1.283,8.179 -8.965,13.777 -17.144,12.494c-55.517,-8.71 -89.35,-2.076 -112.357,-0.078c-53.726,4.665 -120.138,26.118 -104.053,98.953c5.895,26.695 32.776,44.629 61.429,45.344c67.48,1.684 83.013,-13.781 138.649,-41.402c59.48,-29.529 104.713,-14.936 122.371,15c17.214,29.184 10.557,78.413 -40.649,125.15Z" style="fill:#fff;"/></g><path d="M255.144,627.305l-6.117,16.787l-3.55,-1.294l6.117,-16.787l3.55,1.294Z" style="fill:#fff;"/></g><g id="Layer6"></g></svg>