<?xml version="1.0" encoding="UTF-8" standalone="no"?>
<!DOCTYPE svg PUBLIC "-//W3C//DTD SVG 1.1//EN" "http://www.w3.org/Graphics/SVG/1.1/DTD/svg11.dtd">
<svg width="100%" height="100%" viewBox="0 0 1161 1024" version="1.1" xmlns="http://www.w3.org/2000/svg" xmlns:xlink="http://www.w3.org/1999/xlink" xml:space="preserve" xmlns:serif="http://www.serif.com/" style="fill-rule:evenodd;clip-rule:evenodd;stroke-linejoin:round;stroke-miterlimit:2;">
    <g transform="matrix(1,0,0,1,-2499.070698,-0)">
        <g id="Artboard3" transform="matrix(1,0,0,1,74.644171,0)">
            <rect x="2424.427" y="0" width="1160.427" height="1024" style="fill:none;"/>
            <g transform="matrix(0.980133,-0.198342,0.198342,0.980133,-17.876378,590.128346)">
                <g transform="matrix(1.874329,0,0,1.103197,-2835.61478,-218.577287)">
                    <path d="M2936.372,541.825C2935.877,553.998 2927.806,586.721 2932.15,585.687C2934.947,585.022 2936.194,553.33 2936.372,541.825C2936.759,516.856 2940.879,476.038 2944.771,454.941C2949.102,431.467 2970.505,403.453 2985.408,402.174C3022.171,399.021 3025.954,452.207 3034.255,449.912C3043.948,447.232 3040.514,400.457 3082.537,403.953C3130.911,407.977 3127.455,460.754 3130.411,463.752C3136.605,470.036 3149.898,428.96 3180.193,442.008C3204.141,452.323 3217.434,479.913 3223.995,504.358C3232.955,537.741 3224.176,657.489 3233.52,634.478C3287.421,501.733 3337.964,486.305 3344.254,484.327C3392.249,469.234 3405.346,525.166 3409.325,553.25C3414.755,591.572 3403.29,630.566 3363.135,670.695C3322.113,711.692 3310.699,763.402 3310.697,763.408C3264.146,918.449 3238.599,956.609 3183.129,958.842C3149.497,960.195 3097.653,921.927 3068.394,915.71C3031.432,907.856 2979.554,935.565 2953.548,930.087C2918.415,922.687 2900.981,900.818 2880.28,830.736C2863.983,775.561 2854.083,628.502 2847.966,547.397C2842.868,479.809 2835.154,382.844 2843.575,344.106C2854.722,292.834 2873.078,291.255 2890.08,291.255C2907.082,291.255 2923.86,307.311 2930.915,347.975C2938.02,388.933 2942.645,466.753 2940.688,484.31" style="fill:rgb(44,86,195);"/>
                    <path d="M2947.066,423.731C2949.791,418.658 2952.903,413.809 2956.257,409.442C2965.401,397.536 2976.218,389.348 2985.005,388.595C3010.94,386.37 3022.925,407.96 3030.464,425.031C3031.479,427.33 3032.65,429.944 3033.657,432.18C3034.573,429.683 3035.671,426.705 3036.584,424.268C3042.694,407.962 3052.951,387.879 3082.929,390.372C3102.762,392.022 3114.844,401.408 3122.472,412.214C3129.483,422.147 3133.396,436.249 3135.414,446.028C3136.104,445.261 3136.794,444.486 3137.421,443.77C3146.844,433.01 3160.947,419.692 3182.16,428.829C3209.009,440.393 3223.92,471.309 3231.277,498.717C3234.439,510.499 3235.869,531.966 3236.321,554.976C3236.652,571.868 3236.496,589.67 3236.581,604.098C3289.095,486.598 3336.614,472.902 3342.797,470.957C3364.601,464.101 3380.018,470.706 3391.013,482.476C3407.638,500.273 3414.372,530.775 3417.106,550.067C3423.148,592.713 3411.877,637.759 3367.193,682.415C3328.599,720.985 3317.828,769.581 3317.826,769.587C3269.085,931.922 3241.399,970.097 3183.319,972.435C3165.825,973.139 3143.571,963.767 3121.91,953.182C3101.537,943.227 3081.714,932.243 3067.4,929.202C3045.87,924.627 3019.136,932.715 2995.732,938.582C2978.821,942.821 2963.51,945.886 2952.564,943.581C2914.606,935.585 2895.493,912.551 2873.128,836.834C2856.573,780.791 2846.242,631.507 2840.028,549.125C2836.941,508.197 2832.917,456.593 2832.017,413.415C2831.377,382.728 2832.444,356.067 2836.068,339.395C2841.239,315.609 2847.944,301.273 2855.155,292.358C2865.964,278.996 2878.256,277.658 2890.08,277.658C2910.169,277.658 2930.256,296.083 2938.591,344.131C2942.267,365.321 2945.244,395.953 2947.066,423.731ZM2948.795,483.861C2948.728,484.985 2948.647,485.981 2948.551,486.839C2948.468,487.586 2948.351,488.306 2948.202,488.997C2946.166,507.194 2944.601,527.524 2944.373,542.167C2944.372,542.172 2944.372,542.178 2944.372,542.183C2944.215,552.311 2943.16,576.625 2941.227,586.332C2939.407,595.471 2935.578,598.601 2933.26,599.153L2929.566,598.763L2927.548,597.346L2925.818,595.164C2924.395,592.862 2922.976,588.985 2922.874,583.089C2922.802,578.93 2923.644,571.754 2924.921,563.922C2926.263,555.698 2928.118,546.415 2928.377,541.128C2928.662,524.081 2930.592,500.095 2933.024,479.41C2934.3,458.952 2929.734,389.261 2923.238,351.819C2917.465,318.536 2903.995,304.852 2890.08,304.852C2881.499,304.852 2872.417,304.649 2864.572,314.347C2859.347,320.806 2854.829,331.584 2851.083,348.817C2847.97,363.136 2847.463,386.096 2848.012,412.453C2848.896,454.838 2852.873,505.491 2855.904,545.669C2861.925,625.497 2871.392,770.331 2887.433,824.637C2906.47,889.086 2922.224,909.788 2954.533,916.593C2967.013,919.222 2985.685,913.607 3005.686,908.558C3027.259,903.113 3050.256,898.153 3069.387,902.218C3084.332,905.394 3105.062,916.653 3126.334,927.048C3146.318,936.813 3166.801,945.898 3182.94,945.249C3235.804,943.121 3259.204,904.986 3303.568,757.23C3303.57,757.223 3315.627,702.399 3359.078,658.975C3394.721,623.354 3406.365,590.45 3401.545,556.432C3399.503,542.023 3394.898,518.776 3382.48,505.483C3374.113,496.526 3362.304,492.479 3345.71,497.697C3339.691,499.59 3291.695,515.154 3240.107,642.199C3236.081,652.115 3231.442,651.698 3228.823,650.297C3226.59,649.104 3223.317,645.324 3222.021,636.166C3220.267,623.779 3220.96,588.279 3220.324,555.882C3219.957,537.166 3219.286,519.584 3216.714,510C3210.947,488.516 3199.273,464.253 3178.227,455.188C3164.173,449.135 3154.554,457.305 3147.894,464.609C3144.229,468.627 3141.25,472.436 3138.844,474.631C3133.802,479.229 3129.62,478.786 3126.308,475.427C3124.934,474.033 3123.085,471.17 3122.037,465.605C3121.027,460.248 3120.548,444.896 3112.222,433.1C3106.454,424.929 3097.143,418.781 3082.146,417.534C3069.879,416.513 3062.188,420.067 3057.115,425.945C3052.221,431.615 3049.925,439.181 3047.929,444.994C3044.319,455.506 3040.476,461.968 3035.541,463.332C3032.501,464.173 3029.587,463.046 3026.747,459.6C3024.815,457.257 3022.753,453.229 3020.521,448.017C3015.258,435.73 3007.395,413.902 2985.812,415.754C2979.694,416.279 2972.36,422.737 2965.993,431.026C2959.666,439.265 2954.174,449.432 2952.408,459.007C2951.182,465.652 2949.933,474.341 2948.795,483.861Z" style="fill:white;"/>
                </g>
                <g transform="matrix(1.98251,0.148645,-0.23108,3.081966,-2493.319186,-1365.116643)">
                    <path d="M2746.519,433.634C2744.657,431.239 2746.169,428.321 2749.893,427.123C2753.618,425.925 2758.154,426.897 2760.016,429.293C2790.165,468.079 2777.422,488.024 2773.605,504.659C2769.786,521.301 2753.794,532.04 2730.018,532.04C2718.223,532.04 2704.014,529.811 2693.308,522.092C2683.355,514.915 2676.12,502.634 2678.415,481.857C2678.71,479.185 2682.322,477.17 2686.475,477.36C2690.629,477.55 2693.762,479.873 2693.467,482.545C2691.589,499.548 2696.423,509.757 2704.568,515.63C2711.96,520.959 2721.875,522.334 2730.018,522.334C2746.119,522.334 2756.091,514.512 2758.677,503.242C2762.201,487.884 2774.353,469.442 2746.519,433.634Z" style="fill:white;"/>
                </g>
                <g transform="matrix(1.98251,0.148645,-0.23108,3.081966,-2354.417431,-1334.501291)">
                    <path d="M2758.705,438.006C2757.106,435.533 2758.929,432.69 2762.774,431.661C2766.618,430.632 2771.038,431.805 2772.638,434.278C2795.517,469.659 2782.951,491.081 2773.073,505.867C2763.85,519.671 2748.353,530.872 2725.33,530.872C2701.7,530.872 2687.899,523.419 2681.822,516.322C2679.813,513.975 2681.144,511.021 2684.791,509.729C2688.439,508.437 2693.031,509.292 2695.04,511.639C2699.218,516.519 2709.083,521.166 2725.33,521.166C2742.188,521.166 2752.456,512.142 2759.209,502.034C2768.044,488.81 2779.169,469.65 2758.705,438.006Z" style="fill:white;"/>
                </g>
                <g transform="matrix(1.696716,0.127216,-0.221068,2.948445,-1415.084105,-1224.43493)">
                    <path d="M2762.061,484.739C2761.766,481.944 2765.469,479.537 2770.325,479.367C2775.182,479.197 2779.365,481.328 2779.66,484.122C2780.323,490.39 2782.14,498.702 2776.204,508.741C2768.524,521.729 2758.084,527.643 2747.852,530.499C2737.677,533.339 2727.246,533.11 2718.406,533C2700.578,532.779 2679.805,526.238 2672.234,515.968C2670.334,513.39 2672.428,510.41 2676.907,509.316C2681.386,508.223 2686.565,509.428 2688.465,512.005C2693.394,518.691 2707.18,522.712 2718.786,522.856C2725.18,522.936 2732.798,523.424 2740.157,521.37C2747.46,519.331 2754.03,514.743 2759.512,505.473C2764.507,497.024 2762.619,490.013 2762.061,484.739Z" style="fill:white;"/>
                </g>
                <g transform="matrix(1.669844,0,0,1.669844,-2201.318892,-310.886767)">
                    <path d="M3202.053,632.394C3201.894,637.35 3197.743,641.244 3192.787,641.085C3187.832,640.927 3183.938,636.775 3184.096,631.82C3185.195,597.473 3198.188,572.052 3198.188,572.052C3200.433,567.632 3205.844,565.865 3210.264,568.109C3214.685,570.353 3216.452,575.764 3214.208,580.185C3214.208,580.185 3203.012,602.411 3202.053,632.394Z" style="fill:white;"/>
                </g>
            </g>
        </g>
        <g id="Layer6">
        </g>
    </g>
</svg>
