<?xml version="1.0" encoding="UTF-8" standalone="no"?>
<!DOCTYPE svg PUBLIC "-//W3C//DTD SVG 1.1//EN" "http://www.w3.org/Graphics/SVG/1.1/DTD/svg11.dtd">
<svg width="100%" height="100%" viewBox="0 0 1161 1024" version="1.1" xmlns="http://www.w3.org/2000/svg" xmlns:xlink="http://www.w3.org/1999/xlink" xml:space="preserve" xmlns:serif="http://www.serif.com/" style="fill-rule:evenodd;clip-rule:evenodd;stroke-linejoin:round;stroke-miterlimit:2;">
    <g transform="matrix(1,0,0,1,-3693.713676,0)">
        <g id="Artboard4" transform="matrix(1,0,0,1,-10.211754,0)">
            <rect x="3703.925" y="0" width="1160.427" height="1024" style="fill:none;"/>
            <g transform="matrix(1.493834,-0.208483,0.258413,1.851596,-1396.377222,357.069994)">
                <path d="M3490.199,618.849C3473.597,602.9 3454.537,599.139 3434.971,577.377C3418.722,559.304 3397.133,526.085 3432.894,499.715C3463.158,477.398 3500.948,485.672 3515.392,502.849C3541.648,534.073 3545.647,540.055 3563.283,546.299C3581.678,552.812 3604.901,557.512 3630.92,544.517C3644.912,537.529 3668.138,513.026 3654.945,482.38C3641.267,450.604 3604.384,441.981 3576.409,451.772C3559.28,457.767 3558.812,469.166 3525.667,478.674C3487.305,489.678 3459.132,473.967 3446.111,452.212C3446.111,452.212 3440.541,442.101 3440.025,438.948C3435.304,410.069 3448.811,399.011 3468.867,383.627C3489.641,367.691 3517.518,351.717 3565.745,347.387C3604.561,343.902 3693.631,352.852 3730.474,396.115C3744.967,413.134 3707.901,321.424 3707.985,300.708C3708.089,274.816 3719.327,255.372 3754.493,249.525C3755.261,249.398 3756.041,249.325 3756.812,249.214C3789.212,244.559 3813.868,265.831 3819.124,287.236C3819.124,287.236 3823.248,294.613 3824.633,293.242C3832.419,285.532 3846.457,279.395 3861.368,278.672C3906.26,276.498 3920.006,296.547 3922.423,317.181C3924.858,337.97 3924.788,376.961 3920.921,393.374C3912.763,427.998 3896.631,469.091 3901.908,462.721C3916.514,445.09 3923.892,422.91 3934.413,412.15C3934.508,412.053 3961.139,381.685 3999.935,396.625C4023.084,405.539 4037.964,425.647 4021.52,455.404C4012.72,471.328 3995.706,490.086 3983.633,506.991C3969.87,526.262 3944.995,557.327 3935.428,570.635C3935.291,570.825 3931.698,603.217 3916.178,635.03C3899.809,668.582 3876.818,700.581 3857.059,710.454C3826.4,725.774 3799.731,721.082 3760.239,727.878C3721.825,734.489 3694.64,755.547 3666.936,754.81C3638.035,754.042 3617.452,743.95 3586.829,723.266C3551.806,699.61 3515.508,643.164 3490.199,618.849Z" style="fill:rgb(44,86,195);"/>
                <clipPath id="_clip1">
                    <path d="M3490.199,618.849C3473.597,602.9 3454.537,599.139 3434.971,577.377C3418.722,559.304 3397.133,526.085 3432.894,499.715C3463.158,477.398 3500.948,485.672 3515.392,502.849C3541.648,534.073 3545.647,540.055 3563.283,546.299C3581.678,552.812 3604.901,557.512 3630.92,544.517C3644.912,537.529 3668.138,513.026 3654.945,482.38C3641.267,450.604 3604.384,441.981 3576.409,451.772C3559.28,457.767 3558.812,469.166 3525.667,478.674C3487.305,489.678 3459.132,473.967 3446.111,452.212C3446.111,452.212 3440.541,442.101 3440.025,438.948C3435.304,410.069 3448.811,399.011 3468.867,383.627C3489.641,367.691 3517.518,351.717 3565.745,347.387C3604.561,343.902 3693.631,352.852 3730.474,396.115C3744.967,413.134 3707.901,321.424 3707.985,300.708C3708.089,274.816 3719.327,255.372 3754.493,249.525C3755.261,249.398 3756.041,249.325 3756.812,249.214C3789.212,244.559 3813.868,265.831 3819.124,287.236C3819.124,287.236 3823.248,294.613 3824.633,293.242C3832.419,285.532 3846.457,279.395 3861.368,278.672C3906.26,276.498 3920.006,296.547 3922.423,317.181C3924.858,337.97 3924.788,376.961 3920.921,393.374C3912.763,427.998 3896.631,469.091 3901.908,462.721C3916.514,445.09 3923.892,422.91 3934.413,412.15C3934.508,412.053 3961.139,381.685 3999.935,396.625C4023.084,405.539 4037.964,425.647 4021.52,455.404C4012.72,471.328 3995.706,490.086 3983.633,506.991C3969.87,526.262 3944.995,557.327 3935.428,570.635C3935.291,570.825 3931.698,603.217 3916.178,635.03C3899.809,668.582 3876.818,700.581 3857.059,710.454C3826.4,725.774 3799.731,721.082 3760.239,727.878C3721.825,734.489 3694.64,755.547 3666.936,754.81C3638.035,754.042 3617.452,743.95 3586.829,723.266C3551.806,699.61 3515.508,643.164 3490.199,618.849Z"/>
                </clipPath>
                <g clip-path="url(#_clip1)">
                    <g transform="matrix(0.548055,-0.355126,0.48035,0.482516,1158.916038,1760.648806)">
                        <path d="M4409.55,619.301C4423.798,612.899 4458.287,596.2 4516.515,561.027C4523.034,557.089 4531.816,558.742 4536.113,564.716C4540.411,570.69 4538.607,578.737 4532.088,582.676C4525.91,586.407 4520.004,589.933 4514.361,593.264C4515.142,598.379 4512.523,603.648 4507.325,606.348C4502.985,608.602 4492.275,613.577 4424.321,641.641C4416.411,645.212 4412.209,646.754 4411.088,647.108L4405.747,647.888L4401.676,647.22L4398.405,645.762L4395.071,642.961L4392.555,638.435L4392.032,634.586L4392.95,630.322L4396.299,625.641L4400.597,622.993C4403.686,621.72 4406.669,620.49 4409.55,619.301Z" style="fill:white;"/>
                    </g>
                    <g transform="matrix(0.847896,-0.427725,0.530162,0.684068,-235.420026,1985.559132)">
                        <path d="M4433.773,569.311C4429.984,573.282 4423.684,573.43 4419.713,569.641C4415.741,565.853 4415.593,559.552 4419.382,555.581C4433.336,540.955 4444.412,533.597 4472.795,493.934C4489.7,470.31 4491.292,464.851 4520.976,412.563C4523.686,407.79 4529.761,406.114 4534.534,408.824C4539.308,411.534 4540.983,417.609 4538.273,422.382C4507.935,475.822 4506.247,481.365 4488.97,505.509C4459.614,546.532 4448.206,554.183 4433.773,569.311Z" style="fill:white;"/>
                    </g>
                </g>
                <path d="M3460.288,479.221C3450.438,473.079 3442.634,464.854 3437.156,455.7C3437.11,455.624 3437.066,455.548 3437.024,455.47C3437.024,455.47 3430.765,443.66 3430.166,439.997C3424.873,407.62 3439.529,395.06 3462.014,377.812C3484.023,360.929 3513.553,344.001 3564.645,339.413C3588.998,337.227 3632.28,339.664 3671.323,351.781C3688.245,357.033 3704.341,364.102 3717.899,373.292C3710.227,348.371 3697.991,312.693 3698.04,300.682C3698.111,282.87 3703.267,267.847 3715.699,257.129C3724.154,249.838 3736.031,244.403 3752.486,241.667C3753.342,241.525 3754.209,241.438 3755.068,241.315C3790.578,236.213 3818.54,257.173 3827.25,280.421C3836.464,275.057 3848.35,271.265 3860.772,270.664C3886.936,269.397 3903.85,275.084 3914.749,283.616C3925.816,292.279 3930.893,304.215 3932.324,316.426C3934.831,337.831 3934.672,377.973 3930.691,394.872C3929.842,398.475 3928.906,402.149 3927.917,405.831C3934.334,399.512 3963.752,373.801 4004.219,389.384C4018.122,394.738 4029.418,403.55 4034.893,415.395C4040.191,426.857 4040.16,441.376 4030.603,458.671C4021.682,474.815 4004.489,493.859 3992.25,510.996C3978.948,529.623 3955.268,559.264 3945.051,573.253C3943.983,580.495 3939.342,609.456 3925.432,637.968C3908.143,673.407 3883.165,706.847 3862.296,717.275C3845.603,725.615 3830.03,728.588 3813.222,730.321C3798.03,731.887 3781.748,732.38 3762.314,735.725C3740.058,739.555 3721.763,748.517 3704.864,754.833C3691.662,759.766 3679.147,763.163 3666.609,762.829C3635.613,762.005 3613.287,751.601 3580.445,729.418C3545.049,705.51 3508.163,648.583 3482.583,624.009C3474.811,616.543 3466.399,611.99 3457.705,606.697C3447.744,600.631 3437.416,593.761 3426.921,582.088C3408.451,561.545 3385.536,523.767 3426.185,493.792C3437.075,485.762 3448.785,481.162 3460.288,479.221ZM3513.557,489.518C3517.509,492.144 3520.912,495.122 3523.622,498.345C3547.895,527.211 3550.974,533.179 3567.279,538.952C3583.161,544.575 3603.222,548.915 3625.686,537.695C3637.523,531.784 3656.712,510.939 3645.551,485.012C3634.157,458.545 3603.668,450.977 3580.367,459.133C3572.967,461.722 3569.336,465.653 3563.805,469.79C3556.697,475.106 3547.4,480.955 3528.999,486.234C3523.679,487.76 3518.528,488.841 3513.557,489.518ZM3455.067,448.723C3466.077,467.12 3489.895,480.42 3522.336,471.114C3540.184,465.994 3547.473,460.262 3553.77,455.334C3559.303,451.004 3564.347,447.248 3572.451,444.411C3605.1,432.984 3648.376,442.663 3664.34,479.748C3679.564,515.114 3652.301,543.275 3636.155,551.339C3606.58,566.11 3580.196,561.049 3559.287,553.646C3540.317,546.93 3535.404,540.939 3507.162,507.353C3495.341,493.295 3464.372,487.373 3439.603,505.637C3408.72,528.41 3428.988,557.058 3443.021,572.666C3454.021,584.9 3464.919,591.005 3475.182,597.206C3483.074,601.973 3490.638,606.795 3497.814,613.689C3522.854,637.745 3558.564,693.71 3593.213,717.114C3621.618,736.3 3640.456,746.078 3667.264,746.791C3679.622,747.12 3691.733,742.257 3705.169,736.905C3720.91,730.635 3738.09,723.486 3758.165,720.031C3778.223,716.579 3795.02,716.02 3810.701,714.403C3824.765,712.953 3837.855,710.612 3851.823,703.633C3858.834,700.13 3866.137,693.361 3873.505,684.746C3885.591,670.615 3897.398,651.618 3906.924,632.091C3920.449,604.368 3924.602,576.187 3925.397,570.694C3925.785,568.014 3926.767,566.69 3926.825,566.609C3936.39,553.305 3961.258,522.251 3975.016,502.985C3986.922,486.314 4003.758,467.841 4012.437,452.136C4019.325,439.673 4020.075,429.262 4016.257,421.002C4012.616,413.125 4004.897,407.426 3995.652,403.866C3963.894,391.636 3942.298,417.04 3942.221,417.12C3931.816,427.761 3924.622,449.742 3910.177,467.18C3908.465,469.246 3906.702,470.104 3905.738,470.501L3903.334,471.203L3901.05,471.403L3898.194,471.057L3895.526,470.045L3893.288,468.411L3891.713,466.258L3890.924,462.819C3890.925,461.73 3891.293,459.489 3892.159,456.35C3895.321,444.887 3905.299,416.712 3911.151,391.876C3914.903,375.948 3914.885,338.11 3912.522,317.936C3911.535,309.512 3908.532,301.108 3900.898,295.132C3893.095,289.023 3880.696,285.774 3861.964,286.681C3849.964,287.263 3838.609,292.105 3832.343,298.31L3830.597,299.682L3828.142,300.82L3825.324,301.388L3822.722,301.348C3820.777,301.122 3817.876,300.243 3815.393,297.881C3813.068,295.671 3810.058,290.534 3810.058,290.534C3809.747,289.977 3809.516,289.394 3809.369,288.795C3805.049,271.201 3785.187,253.287 3758.555,257.113C3757.872,257.211 3757.181,257.27 3756.5,257.384C3744.821,259.325 3736.223,262.918 3730.222,268.093C3720.967,276.072 3717.983,287.474 3717.929,300.734C3717.863,317.156 3741.533,378.568 3743.58,393.855C3744.05,397.369 3743.398,399.794 3742.779,400.977L3741.203,403.103L3739.156,404.661C3736.826,406.008 3728.941,408.484 3722.277,400.659C3708.658,384.667 3687.183,373.897 3664.181,366.758C3628.55,355.7 3589.07,353.366 3566.845,355.362C3521.484,359.434 3495.259,374.452 3475.719,389.441C3458.091,402.963 3445.735,412.516 3449.885,437.899C3450.275,440.282 3454.283,447.357 3455.067,448.723Z" style="fill:white;"/>
            </g>
        </g>
        <g id="Layer6">
        </g>
    </g>
</svg>
