<?xml version="1.0" encoding="UTF-8" standalone="no"?>
<!DOCTYPE svg PUBLIC "-//W3C//DTD SVG 1.1//EN" "http://www.w3.org/Graphics/SVG/1.1/DTD/svg11.dtd">
<svg width="100%" height="100%" viewBox="0 0 1161 1024" version="1.1" xmlns="http://www.w3.org/2000/svg" xmlns:xlink="http://www.w3.org/1999/xlink" xml:space="preserve" xmlns:serif="http://www.serif.com/" style="fill-rule:evenodd;clip-rule:evenodd;stroke-linejoin:round;stroke-miterlimit:2;">
    <g transform="matrix(1,0,0,1,-1303.148736,0)">
        <g id="Artboard2" transform="matrix(1,0,0,1,88.65852,0)">
            <rect x="1214.49" y="0" width="1160.427" height="1024" style="fill:none;"/>
            <g id="Layer11" transform="matrix(1,0,0,1,37.538169,45.513195)">
                <g transform="matrix(1.397247,0,0,1.397247,-784.58702,-174.756498)">
                    <g transform="matrix(-1.484781,-0.484049,-0.539482,1.654819,4733.874246,598.892063)">
                        <path d="M1719.886,415.492C1715.404,418.472 1665.976,404.33 1631.295,445.356C1605.391,475.999 1604.146,528.426 1618.576,562.843C1636.285,605.08 1662.301,587.502 1740.53,609.141C1782.801,620.834 1813.424,652.493 1854.481,635.667C1903.406,615.616 1944.162,578.556 1939.062,520.027C1937.802,505.564 1913.266,501.733 1904.755,491.67C1899.131,485.022 1911.689,471.206 1902.61,465.695C1894.87,460.998 1885.833,456.601 1875.426,452.312C1902.765,437.148 1958.838,366.147 1969.173,338.53C1974.447,324.434 1970.019,305.816 1954.462,295.792C1914.99,270.359 1892.425,305.038 1874.535,326.216C1843.574,362.871 1820.104,401.877 1811.498,424.734C1810.784,426.63 1810.18,428.484 1809.686,430.288C1809.256,430.161 1808.825,430.035 1808.393,429.909C1802.909,428.305 1797.43,426.897 1791.973,425.675C1792.01,425.12 1792.03,424.554 1792.03,423.975C1792.03,423.975 1812.346,339.597 1812.087,311.124C1811.701,268.546 1799.658,245.689 1761.233,244.206C1742.098,243.467 1728.558,257.202 1723.56,271.378C1713.724,299.278 1730.543,408.408 1719.886,415.492Z" style="fill:rgb(44,86,195);"/>
                        <path d="M1805.078,422.514C1803.294,422.032 1801.51,421.57 1799.727,421.128C1803.8,403.687 1819.188,336.076 1818.961,311.073C1818.711,283.492 1813.318,263.726 1800.572,251.86C1791.613,243.519 1779.024,238.719 1761.528,238.044C1739.09,237.178 1722.867,252.894 1717.006,269.518C1710.004,289.381 1715.966,349.724 1716.647,386.614C1716.796,394.679 1716.681,401.557 1716.042,406.5C1715.903,407.579 1715.638,408.749 1715.403,409.666C1713.029,409.581 1709.157,409.447 1705.56,409.338C1685.884,408.745 1651.985,410.674 1625.818,441.628C1598.607,473.818 1596.984,528.862 1612.142,565.015C1617.1,576.841 1622.794,584.393 1629.684,589.578C1636.653,594.824 1644.927,597.711 1655.405,599.745C1673.773,603.31 1699.661,604.29 1738.505,615.035C1759.36,620.804 1777.315,631.55 1795.147,638.726C1815.027,646.727 1834.755,650.532 1857.337,641.277C1908.759,620.203 1951.276,581.063 1945.916,519.547C1945.249,511.894 1940.064,506.246 1932.871,501.666C1928.653,498.979 1923.74,496.642 1919.213,494.208C1915.651,492.294 1912.309,490.398 1910.231,487.942C1910.068,487.749 1910.133,487.493 1910.123,487.24C1910.094,486.575 1910.186,485.871 1910.316,485.142C1910.822,482.299 1911.889,479.232 1912.442,476.352C1913.681,469.9 1912.514,464.26 1906.461,460.586C1901.081,457.321 1895.098,454.192 1888.487,451.143C1898.596,443.266 1910.715,431.149 1922.668,417.469C1946.26,390.471 1969.342,357.455 1975.689,340.493C1981.828,324.089 1976.577,302.448 1958.472,290.782C1944.769,281.953 1932.737,279.651 1922.173,281.043C1911.664,282.427 1902.43,287.595 1894.283,294.572C1884.583,302.88 1876.414,313.781 1869.057,322.491C1837.666,359.653 1813.91,399.224 1805.078,422.514ZM1723.979,420.448C1725.441,419.476 1726.944,417.821 1727.981,415.259C1729.195,412.26 1729.991,407.229 1730.285,400.712C1731.168,381.144 1728.215,346.437 1727.404,316.958C1726.891,298.265 1727.106,281.772 1730.114,273.238C1734.25,261.508 1745.103,249.757 1760.937,250.368C1774.183,250.88 1783.89,254.105 1790.673,260.42C1801.539,270.536 1805,287.66 1805.213,311.174C1805.469,339.309 1785.31,422.673 1785.31,422.673C1785.207,423.101 1785.155,423.537 1785.155,423.975C1785.155,424.426 1785.141,424.867 1785.111,425.298C1784.909,428.265 1787.094,430.939 1790.308,431.659C1795.61,432.846 1800.934,434.215 1806.262,435.773L1807.55,436.15C1809.368,436.683 1811.351,436.513 1813.023,435.68C1814.695,434.847 1815.905,433.426 1816.361,431.76C1816.811,430.119 1817.361,428.433 1818.011,426.708C1826.467,404.249 1849.592,365.957 1880.014,329.942C1886.968,321.709 1894.607,311.347 1903.776,303.495C1909.782,298.351 1916.422,294.268 1924.171,293.247C1931.865,292.234 1940.471,294.371 1950.453,300.802C1963.462,309.184 1967.066,324.78 1962.656,336.566C1956.602,352.745 1934.351,384.107 1911.849,409.858C1897.099,426.738 1882.309,441.243 1871.811,447.065C1869.657,448.261 1868.409,450.422 1868.565,452.691C1868.721,454.96 1870.254,456.968 1872.556,457.917C1882.585,462.05 1891.3,466.278 1898.758,470.804C1899.703,471.378 1899.18,472.392 1899.041,473.379C1898.747,475.46 1898.047,477.68 1897.488,479.854C1895.96,485.785 1895.912,491.418 1899.279,495.399C1903.979,500.956 1912.925,505.021 1921.049,509.465C1926.411,512.397 1931.75,515.237 1932.209,520.508C1937.048,576.05 1898.053,611.029 1851.625,630.056C1833.15,637.628 1817.038,634.017 1800.774,627.471C1782.463,620.101 1763.971,609.171 1742.556,603.247C1703.171,592.353 1676.936,591.303 1658.311,587.688C1650.292,586.131 1643.853,584.142 1638.519,580.127C1633.105,576.053 1628.906,569.964 1625.01,560.672C1611.308,527.991 1612.175,478.181 1636.772,449.083C1662.473,418.68 1697.033,421.238 1711.908,421.962C1715.298,422.127 1717.907,422.17 1719.538,421.97C1721.59,421.718 1723.027,421.081 1723.979,420.448Z" style="fill:white;"/>
                    </g>
                    <g transform="matrix(0.74439,-0.761365,1.15215,1.126462,44.203146,1514.399706)">
                        <path d="M1821.319,290.297C1823.429,301.434 1825.928,321.431 1822.098,341.673C1816.208,372.8 1778.924,393.904 1758.745,403.889C1739.969,413.18 1713.011,429.432 1690.305,408.573C1681.015,400.039 1678.874,395.93 1683.975,385.9C1689.849,374.349 1720.237,366.953 1729.115,344.724C1729.661,343.356 1730.126,341.932 1730.499,340.447C1735.034,322.379 1735.239,284.298 1735.239,284.298C1735.239,262.91 1735.074,246.226 1762.428,244.438C1795.787,242.257 1815.913,261.765 1821.319,290.297Z" style="fill:rgb(44,86,195);"/>
                        <path d="M1831.323,289.469C1833.501,300.965 1836.056,321.606 1832.102,342.5C1825.804,375.786 1786.367,398.544 1764.788,409.222C1756.856,413.148 1747.494,418.204 1737.637,421.503C1728.657,424.508 1719.246,426.079 1709.956,425.095C1700.564,424.099 1690.955,420.579 1682.121,412.464C1676.424,407.23 1673.173,403.267 1671.875,399.161C1670.508,394.84 1671.126,390.251 1674.418,383.778C1677.22,378.268 1684.293,373.339 1692.937,367.965C1702.643,361.931 1714.611,354.93 1719.367,343.024C1719.835,341.851 1720.233,340.63 1720.553,339.357C1724.957,321.81 1725.153,285.02 1725.157,284.286C1725.157,272.805 1725.335,262.6 1728.961,255.011C1733.568,245.372 1742.782,239.027 1761.435,237.808C1799.869,235.295 1825.095,256.597 1831.323,289.469ZM1811.315,291.124C1806.726,266.907 1791.736,249.217 1763.42,251.068C1759.164,251.346 1755.867,252.054 1753.418,253.353C1749.518,255.423 1747.923,258.744 1746.858,262.707C1745.227,268.777 1745.321,276.181 1745.321,284.298L1745.321,284.322C1745.321,284.322 1745.067,323.125 1740.445,341.537C1740.019,343.234 1739.488,344.861 1738.863,346.424C1733.883,358.895 1723.043,367.279 1712.45,374.091C1707.837,377.057 1703.31,379.693 1699.583,382.297C1696.877,384.188 1694.574,385.973 1693.532,388.022C1691.722,391.581 1690.861,394.059 1691.612,396.434C1692.432,399.025 1694.895,401.381 1698.49,404.682C1703.282,409.085 1708.056,411.398 1713.15,411.938C1718.344,412.489 1723.506,411.296 1728.527,409.615C1737.336,406.668 1745.613,402.064 1752.702,398.556C1771.482,389.263 1806.612,369.816 1812.094,340.847C1815.801,321.256 1813.357,301.904 1811.315,291.124Z" style="fill:white;"/>
                    </g>
                    <g transform="matrix(0.74439,-0.761365,1.15215,1.126462,-21.072712,1561.229861)">
                        <path d="M1733.206,260.761C1793.458,241.641 1812.209,259.621 1817.615,288.153C1819.725,299.291 1820.361,310.245 1815.39,329.016C1806.753,361.627 1782.783,380.922 1753.977,388.571C1741.61,391.855 1727.681,390.018 1714.602,383.54C1695.373,374.016 1693.948,357.365 1709.378,331.307" style="fill:rgb(44,86,195);"/>
                        <path d="M1737.57,266.767C1732.554,268.359 1726.526,266.96 1724.117,263.645C1721.709,260.33 1723.825,256.347 1728.842,254.755C1763.672,243.703 1786.656,244.485 1801.564,251.041C1816.509,257.615 1824.486,270.791 1827.619,287.325C1829.831,299.001 1830.532,310.486 1825.321,330.165C1815.911,365.698 1789.123,386.419 1757.736,394.753C1742.324,398.845 1724.855,396.944 1708.555,388.871C1686.42,377.908 1682.228,358.875 1699.989,328.879C1702.017,325.455 1707.87,323.763 1713.052,325.102C1718.234,326.442 1720.795,330.31 1718.767,333.735C1713.053,343.385 1709.74,351.626 1709.076,358.624C1708.248,367.341 1711.779,373.815 1720.648,378.208C1730.51,383.093 1740.893,384.865 1750.218,382.389C1776.444,375.425 1797.596,357.558 1805.458,327.868C1810.189,310.003 1809.619,299.58 1807.611,288.981C1805.337,276.977 1801.242,266.906 1790.392,262.134C1779.501,257.344 1763.015,258.693 1737.57,266.767Z" style="fill:white;"/>
                    </g>
                    <g transform="matrix(-0.285019,-1.236284,1.696047,-0.391015,1849.035374,2865.259511)">
                        <path d="M1654.635,348.637C1687.606,391.281 1740.982,377.76 1726.428,333.298C1717.892,307.219 1711.327,299.172 1721.276,270.953C1726.274,256.777 1743.107,245.767 1762.259,245.896C1810.854,246.223 1816.669,278.397 1811.767,303.757C1809.891,313.463 1809.163,328.078 1796.958,350.209" style="fill:rgb(44,86,195);"/>
                        <path d="M1647.263,351.665C1644.97,348.699 1646.412,344.935 1650.48,343.263C1654.549,341.592 1659.713,342.643 1662.006,345.608C1669.353,355.111 1677.708,361.57 1686.098,365.166C1693.105,368.169 1699.978,369.094 1705.802,367.751C1711.322,366.479 1715.599,363.148 1718.05,358.312C1721.066,352.36 1721.358,344.384 1718.198,334.73C1709.256,307.414 1702.661,298.975 1713.081,269.418C1719.052,252.479 1739.453,239.574 1762.338,239.728C1779.328,239.843 1791.757,243.462 1800.782,249.041C1820.928,261.493 1823.972,284.825 1820.146,304.617C1818.211,314.627 1817.395,329.687 1804.809,352.509C1803.067,355.668 1798.135,357.201 1793.802,355.932C1789.469,354.662 1787.365,351.067 1789.107,347.908C1800.93,326.468 1801.571,312.299 1803.388,302.896C1807.633,280.938 1804.256,252.347 1762.181,252.063C1746.76,251.96 1733.495,261.074 1729.471,272.488C1719.994,299.37 1726.527,307.023 1734.659,331.867C1743.353,358.427 1729.599,375.203 1710.906,379.513C1692.682,383.714 1666.465,376.499 1647.263,351.665Z" style="fill:white;"/>
                    </g>
                </g>
            </g>
        </g>
        <g id="Layer6">
        </g>
    </g>
</svg>
